Coordinates
version=1
nRows=15
nColumns=26
inDegrees=yes

Units are S.I. units (second, meters, Newtons, ...)
If the header above contains a line with 'inDegrees', this indicates whether rotational values are in degrees (yes) or radians (no).

endheader
time	pelvis_tilt	pelvis_list	pelvis_rotation	pelvis_tx	pelvis_ty	pelvis_tz	hip_flexion_r	hip_adduction_r	hip_rotation_r	knee_angle_r	knee_angle_r_beta	ankle_angle_r	subtalar_angle_r	mtp_angle_r	hip_flexion_l	hip_adduction_l	hip_rotation_l	knee_angle_l	knee_angle_l_beta	ankle_angle_l	subtalar_angle_l	mtp_angle_l	lumbar_extension	lumbar_bending	lumbar_rotation
      0.34400000	     -1.23813976	     -4.33223152	     -2.95431818	     -2.41224315	      1.01564086	      0.16704000	     26.05131928	      1.84296292	    -25.39910112	     28.67465308	      0.50046711	     -8.15831106	      0.00000000	     10.03675126	    -12.31259444	      0.13712616	     -4.79127507	    108.90796299	      1.90080254	     -2.30376992	      0.00000000	     49.75822807	    -10.87375730	      8.50489941	     -3.04148340
      0.34800000	     -0.96186479	     -4.33547044	     -3.21879521	     -2.38660094	      1.01293582	      0.16755632	     24.60055842	      2.22075662	    -23.21678767	     29.33567436	      0.51200411	     -4.69258853	      0.00000000	      8.98825979	    -11.25438582	     -0.18555841	     -4.65925340	    111.80049898	      1.95128681	     -0.78049646	      0.00000000	     49.28511573	    -11.26470206	      8.50355023	     -2.37871291
      0.35200000	     -0.62816925	     -4.25396851	     -3.74120313	     -2.36068422	      1.01015202	      0.16920581	     23.14952915	      2.51187332	    -21.80092666	     30.52044900	      0.53268232	     -0.37917291	      0.00000000	      7.68211464	    -10.28369383	     -0.44996179	     -4.61213880	    114.50361271	      1.99846505	      0.87205247	      0.00000000	     49.05737854	    -11.71871640	      8.25309688	     -1.34477946
      0.35600000	     -0.44522571	     -4.45605846	     -4.05848789	     -2.33549482	      1.00723759	      0.17004504	     21.76935381	      3.08829183	    -20.70594560	     31.39069434	      0.54787097	      2.82075453	      0.00000000	      7.15938404	     -8.97713764	     -0.96541523	     -4.28138412	    117.32113342	      2.04764006	      2.34617944	      0.00000000	     48.72014090	    -12.13714520	      8.43835647	     -0.50899797
      0.36000000	     -0.32734505	     -4.46924951	     -4.17750755	     -2.31093849	      1.00428740	      0.17047079	     20.60204464	      3.41802852	    -19.47303519	     32.61169721	      0.56918149	      6.83615499	      0.00000000	      9.43215008	     -7.34718059	     -1.26050329	     -3.59386599	    120.20255315	      2.09793032	      4.33387562	      0.00000000	     50.64727734	    -12.53236471	      8.46352088	      0.09182357
      0.36400000	      0.07694049	     -4.57984593	     -4.50688399	     -2.28625313	      1.00197718	      0.17152272	     18.90591027	      3.97504213	    -18.16462226	     33.19489556	      0.57936022	      9.19552272	      0.00000000	      9.10045601	     -6.06241704	     -1.64053156	     -2.98431528	    122.76853077	      2.14271508	      5.47600361	      0.00000000	     50.21220368	    -13.30537169	      8.49721234	      0.95625870
      0.36800000	      0.06614631	     -4.79561103	     -4.70779857	     -2.26182834	      0.99883876	      0.17260450	     17.86687608	      4.54506267	    -17.36713187	     34.27798520	      0.59826370	     12.60702748	      0.00000000	     11.77933510	     -4.20917447	     -2.21973233	     -2.20173326	    125.43081530	      2.18918071	      7.35002498	      0.00000000	     51.26634758	    -13.63330615	      8.66457429	      1.70235474
      0.37200000	      0.32932004	     -5.03050929	     -5.04200706	     -2.23766101	      0.99650327	      0.17362286	     16.43351162	      5.09200783	    -16.55757065	     34.96697442	      0.61028883	     14.71105013	      0.00000000	     11.40155333	     -2.57621128	     -2.71529313	     -1.35169614	    127.82034738	      2.23088591	      8.50545816	      0.00000000	     50.87284214	    -14.36371569	      8.80526329	      2.57424823
      0.37600000	      0.65960031	     -5.18215940	     -5.42068527	     -2.21314063	      0.99440230	      0.17486914	     14.94606274	      5.48086117	    -15.85268841	     35.77500978	      0.62439171	     16.83214530	      0.00000000	     11.10549909	     -0.98930318	     -3.17223207	     -0.64039060	    129.91360523	      2.26742015	      9.93617096	      0.00000000	     50.58811385	    -15.14295617	      8.79940319	      3.48394517
      0.38000000	      0.75692632	     -5.30551428	     -5.79189777	     -2.18909527	      0.99229831	      0.17601413	     13.66477034	      5.83969962	    -15.16108775	     36.40461023	      0.63538031	     18.58354839	      0.00000000	     10.92779413	      1.03552432	     -3.58874176	      0.31102424	    131.95239257	      2.30300371	     11.14213572	      0.00000000	     50.46456450	    -15.73989092	      8.77011759	      4.33927394
      0.38400000	      0.67490768	     -5.34106049	     -6.34194775	     -2.16497463	      0.99036321	      0.17723199	     12.49394462	      6.09922850	    -14.44999300	     36.91837929	      0.64434727	     20.35733667	      0.00000000	     10.90522727	      3.33229347	     -4.02329656	      1.01322486	    133.70180260	      2.33353667	     12.53472106	      0.00000000	     50.57585305	    -16.14220869	      8.62025174	      5.37625525
      0.38800000	      0.54570686	     -5.37804317	     -6.62339069	     -2.14013203	      0.98855618	      0.17866247	     11.09289023	      6.33277993	    -14.00413744	     36.96446428	      0.64515161	     21.60309373	      0.00000000	     11.03679414	      5.71103229	     -4.50743493	      2.12744171	    135.20613363	      2.35979220	     13.59800290	      0.00000000	     50.82493621	    -16.33903743	      8.47083468	      6.05703232
      0.39200000	     -0.15777995	     -4.47856753	     -8.21488650	     -2.11788208	      0.98628908	      0.17974237	     10.95376092	      5.69597274	    -12.09145785	     38.08712710	      0.66474577	     23.17929851	      0.00000000	     13.43517642	      9.08405217	     -4.01413001	      1.68844259	    136.58681823	      2.38388969	     15.39644756	      0.00000000	     54.41470374	    -16.25948757	      7.29082946	      7.80804249
      0.39600000	     -0.20452397	     -4.21483814	     -8.73733664	     -2.09305626	      0.98511239	      0.18118410	      9.31136756	      5.57967978	    -11.19439743	     37.74185156	      0.65871958	     23.75226824	      0.00000000	     13.49949487	     11.45462414	     -4.26388671	      2.38829587	    137.51894370	      2.40015835	     16.14981673	      0.00000000	     54.26878036	    -16.47272273	      6.74715149	      8.64617580
      0.40000000	     -0.07378540	     -4.14936345	     -8.86002954	     -2.06675371	      0.98440348	      0.18299196	      7.30308759	      5.49946175	    -10.96541212	     37.33119837	      0.65155233	     24.05266509	      0.00000000	     13.54480049	     13.50761682	     -4.68679798	      3.46948992	    138.10098565	      2.41031690	     16.65361787	      0.00000000	     54.10167766	    -16.64410126	      6.39300282	      9.30979589
